<?xml version="1.0" standalone="no"?><!DOCTYPE svg PUBLIC "-//W3C//DTD SVG 1.1//EN" "http://www.w3.org/Graphics/SVG/1.1/DTD/svg11.dtd"><svg class="icon" width="128px" height="49.24px" viewBox="0 0 2662 1024" version="1.1" xmlns="http://www.w3.org/2000/svg"><path d="M2421.76 138.24C2252.8 56.32 1996.8 76.8 1904.64 276.48c-87.04 184.32 46.08 399.36 230.4 378.88 122.88-15.36 179.2-133.12 138.24-225.28-15.36-46.08-61.44-71.68-112.64-76.8-56.32 0-87.04 10.24-112.64-30.72-46.08 97.28 66.56 97.28 76.8 158.72 25.6 163.84-271.36 51.2-199.68-163.84s389.12-215.04 512-20.48c128 199.68 20.48 512-302.08 517.12-517.12 5.12-819.2-875.52-1607.68-768 814.08-40.96 972.8 839.68 1582.08 901.12 532.48 51.2 727.04-599.04 312.32-808.96z" fill="#E1E1E1" /><path d="M537.6 81.92C5.12 30.72-189.44 680.96 225.28 885.76c168.96 81.92 424.96 61.44 517.12-138.24 87.04-184.32-46.08-399.36-230.4-378.88-122.88 15.36-179.2 133.12-138.24 225.28 15.36 46.08 61.44 71.68 112.64 76.8 56.32 0 87.04-10.24 112.64 30.72 46.08-97.28-66.56-97.28-76.8-158.72-25.6-163.84 271.36-51.2 199.68 163.84-71.68 220.16-384 220.16-512 25.6-128-199.68-20.48-512 302.08-517.12 517.12-5.12 819.2 875.52 1607.68 768-819.2 40.96-977.92-834.56-1582.08-901.12z" fill="#E1E1E1" /></svg>