<?xml version="1.0" standalone="no"?><!DOCTYPE svg PUBLIC "-//W3C//DTD SVG 1.1//EN" "http://www.w3.org/Graphics/SVG/1.1/DTD/svg11.dtd"><svg class="icon" width="128px" height="128.00px" viewBox="0 0 1024 1024" version="1.1" xmlns="http://www.w3.org/2000/svg"><path d="M112 16h736v992H112z" fill="#EDF2F9" /><path d="M496 704m-176 0a176 176 0 1 0 352 0 176 176 0 1 0-352 0Z" fill="#FFFFFF" /><path d="M496 528v160l132.064 132.064A175.136 175.136 0 0 0 672 704c0-97.2-78.8-176-176-176z" fill="#DEE7F1" /><path d="M320 701.6c0 43.904 16.672 83.904 43.936 114.464L496 685.808V528c-97.2 0-176 77.712-176 173.6z" fill="#C2CDDC" /><path d="M496 896c106.032 0 192-85.968 192-192 0-106.048-85.968-192-192-192s-192 85.952-192 192c0 106.032 85.968 192 192 192z m16-351.184c80.848 8.032 144 76.224 144 159.184a159.072 159.072 0 0 1-29.488 92.336L512 681.824v-137.008z m93.904 275.264C577.232 847.232 538.608 864 496 864s-81.232-16.768-109.904-43.92L496 710.176l109.904 109.904zM480 544.816v137.008l-114.512 114.512A159.072 159.072 0 0 1 336 704c0-82.976 63.152-151.152 144-159.184zM896 128h-32V32a32 32 0 0 0-32-32H128a32 32 0 0 0-32 32v960a32 32 0 0 0 32 32h704a32 32 0 0 0 32-32V416h32a32 32 0 0 0 32-32V160a32 32 0 0 0-32-32z m-64 0H448a32 32 0 0 0-32 32v224a32 32 0 0 0 32 32h384v576H128V32h704v96z" fill="#8592A5" /><path d="M553.312 289.04V328h-27.024v-116.56h41.104c8.224 0 15.264 0.976 21.152 2.928 5.904 1.952 10.752 4.624 14.56 8.048 3.808 3.408 6.624 7.44 8.432 12.08s2.736 9.664 2.736 15.024c0 5.808-0.944 11.152-2.816 16a32.08 32.08 0 0 1-8.544 12.48c-3.84 3.472-8.72 6.176-14.608 8.128-5.888 1.936-12.864 2.928-20.928 2.928h-14.064z m0-20.4h14.08c7.04 0 12.112-1.68 15.2-5.04s4.64-8.048 4.64-14.08c0-2.656-0.4-5.088-1.2-7.28s-2.016-4.064-3.648-5.648a16.496 16.496 0 0 0-6.16-3.648 27.424 27.424 0 0 0-8.848-1.264h-14.08v36.96zM655.392 289.04V328h-27.024v-116.56h41.104c8.224 0 15.264 0.976 21.152 2.928 5.904 1.952 10.752 4.624 14.56 8.048 3.808 3.408 6.624 7.44 8.432 12.08s2.736 9.664 2.736 15.024c0 5.808-0.944 11.152-2.816 16a31.952 31.952 0 0 1-8.56 12.48 40.224 40.224 0 0 1-14.592 8.128c-5.888 1.936-12.864 2.928-20.928 2.928h-14.064z m0-20.4h14.08c7.04 0 12.112-1.68 15.2-5.04s4.64-8.048 4.64-14.08c0-2.656-0.4-5.088-1.2-7.28s-2.016-4.064-3.648-5.648a16.496 16.496 0 0 0-6.16-3.648 27.424 27.424 0 0 0-8.848-1.264h-14.08v36.96zM815.056 211.44v21.44h-32.8V328h-27.024v-95.12h-32.816v-21.44h92.64z" fill="#FFFFFF" /></svg>