<?xml version="1.0" standalone="no"?><!DOCTYPE svg PUBLIC "-//W3C//DTD SVG 1.1//EN" "http://www.w3.org/Graphics/SVG/1.1/DTD/svg11.dtd"><svg class="icon" width="128px" height="128.00px" viewBox="0 0 1024 1024" version="1.1" xmlns="http://www.w3.org/2000/svg"><path d="M512 64.1c-247.4 0-448 200.6-448 448s200.6 448 448 448 448-200.6 448-448-200.6-448-448-448z m0 840c-216.5 0-392-175.5-392-392s175.5-392 392-392 392 175.5 392 392-175.5 392-392 392z" fill="#f5f5f5" /><path d="M748.4 484.1H347.2l99.6-99.6c9.7-9.7 9.7-25.5 0-35.2l-4.4-4.4c-9.7-9.7-25.5-9.7-35.2 0L266.1 486.1c-9 3.8-15.4 12.6-15.4 23v6.2c0 10.3 6.4 19.2 15.4 23l141.1 141.1c9.7 9.7 25.5 9.7 35.2 0l4.4-4.4c9.7-9.7 9.7-25.5 0-35.2l-99.6-99.6h401.2c13.7 0 24.9-11.2 24.9-24.9v-6.2c0-13.7-11.2-25-24.9-25z" fill="#f5f5f5" /></svg>